<svg xmlns="http://www.w3.org/2000/svg" viewBox="0 0 198.66 302.71"><defs><style>.cls-1{fill:none;}.cls-2{fill:#fff;}.cls-3{fill:#ededed;}.cls-4{fill:#f4f3ef;}.cls-5{fill:#f4c9d7;}.cls-6{fill:#534239;}.cls-7{fill:#f286a8;}.cls-8{fill:#ccc1c5;}</style></defs><title>Asset 1</title><g id="Layer_2" data-name="Layer 2"><g id="Objects"><path class="cls-1" d="M65,283.39c.36,1.65,2.73,2.63,4.7,4.32,2.26-1.69,4.8-2.67,5.45-4.32.83-2.08.71-11.48,0-24.33a83.06,83.06,0,0,1-2.65-13.87C67.75,264.84,64.4,280.61,65,283.39Z"/><path class="cls-2" d="M198.66,250.24a56.5,56.5,0,0,0-2.33-16.07c-3.19-14-11.55-26.69-26.35-34.14-52.45-26.4-49-67-54-108-3-24.11-17.89-15.93-31.71,4.86-5.26-.31-12.08.34-12.09,2.09,0,10.18-30.8,35.7-32.12,63.47,0,0,0,.09,0,.14C38.49,189.82,59.33,267.66,53.46,282.3c-2.38,5.93-7.86,4.14-9,12-1.08,7.67,16.31,9.94,24.2,5.08,7,4.86,24.82,2.59,25.09-5.08.27-7.86-5.53-6.07-6.87-12-.05-.24-.09-.48-.12-.74a60.5,60.5,0,0,1-11.58-22.5c.67,12.85.79,22.25,0,24.33C74.51,285,72,286,69.71,287.71c-2-1.69-4.34-2.67-4.7-4.32-.61-2.78,2.74-18.55,7.54-38.2-1.39-12.68-.36-26.73,2.79-41.39,8.15-38,39.34-52.39,56.42-32.25,25.78,30.4-11.82,38-16.15,59.61-3.11,15.51-11.25,37,28.59,59.78,10.91,6.24,16.61,9,16.05,10.36,8.82-1.2,16.44-5.7,22.48-12.23A54.16,54.16,0,0,0,198.66,250.24Z"/><path class="cls-3" d="M115.94,92c-3-24.11-17.89-15.93-31.71,4.86-5.26-.31-12.08.34-12.09,2.09,0,6.78-13.7,20.38-23.2,36.92,9.59,3.74,21.8,5.95,37.09,5.95,14.33,0,26-1.94,35.26-5.27C118.51,122.21,117.8,107.14,115.94,92Z"/><path class="cls-3" d="M144.2,290.94c-39.84-22.79-31.7-44.27-28.59-59.78,4.33-21.64,41.93-29.21,16.15-59.61-17.08-20.14-48.27-5.79-56.42,32.25-3.15,14.66-4.18,28.71-2.79,41.39a83.06,83.06,0,0,0,2.65,13.87,60.5,60.5,0,0,0,11.58,22.5c11.35,13.57,29.59,21.61,55.95,21.12,11.44-.21,17-.2,17.52-1.38S155.11,297.18,144.2,290.94Z"/><path class="cls-4" d="M115.21,28.23S147.2-5.06,156.57.66s-6.25,49.16-12.75,62.68C143.82,63.34,124.31,51.64,115.21,28.23Z"/><path class="cls-5" d="M138.14,59.21c5.36-11.68,18.43-44.07,12.18-47.89-5.77-3.52-26.77,18-32.07,23.62A78.22,78.22,0,0,0,138.14,59.21Z"/><path class="cls-4" d="M56.85,28.23S24.86-5.06,15.49.66s6.25,49.16,12.75,62.68C28.24,63.34,47.75,51.64,56.85,28.23Z"/><path class="cls-5" d="M33.91,59.21C28.56,47.53,15.49,15.14,21.74,11.32c5.77-3.52,26.77,18,32.07,23.62A78.09,78.09,0,0,1,33.91,59.21Z"/><path class="cls-2" d="M138,43.37c-21.44-24.68-52-24.6-52-24.6s-30.57-.08-52,24.6C10,71,6.26,130.87,86,130.87S162,71,138,43.37Z"/><path class="cls-6" d="M58.94,72.06A10.51,10.51,0,0,1,68.5,78.2a10.41,10.41,0,0,0,1-4.39,10.53,10.53,0,0,0-21.06,0,10.41,10.41,0,0,0,1,4.39A10.51,10.51,0,0,1,58.94,72.06Z"/><path class="cls-6" d="M113.12,72.06a10.53,10.53,0,0,1,9.56,6.14,10.41,10.41,0,0,0,1-4.39,10.53,10.53,0,1,0-20.1,4.39A10.54,10.54,0,0,1,113.12,72.06Z"/><path class="cls-7" d="M81.14,114.7s4.33,4.2,9.78,0L86,106.26Z"/><path class="cls-5" d="M112.19,103.84c-.07.48-3.88,11.39-13.52,11.39-8.82,0-11.15-9.43-11.55-11.43v0h0c0-.17,0-.29-.06-.33l-1,.16-1-.16s0,.16-.06.33h0v0c-.39,2-2.73,11.43-11.54,11.43-9.65,0-13.41-10.9-13.48-11.38l-.17,0c0,.13,2.14,13.5,13.65,13.5,7.53,0,11.07-5.79,12.63-9.81,1.56,4,5.1,9.81,12.64,9.81,11.5,0,13.62-13.37,13.64-13.5Z"/><path class="cls-7" d="M94.62,97.81C94,95.47,86.05,95.46,86,95.46h0s-7.94,0-8.59,2.35,2.09,2.47,4.29,3.64,1.7,4,4.3,4h0c2.6,0,2.08-2.86,4.29-4S95.27,100.15,94.62,97.81Z"/><path class="cls-5" d="M97.81,105.09a1.43,1.43,0,1,1-1.41-1.17A1.31,1.31,0,0,1,97.81,105.09Z"/><path class="cls-5" d="M102.06,110a1.43,1.43,0,1,1-1.41-1.17A1.3,1.3,0,0,1,102.06,110Z"/><path class="cls-5" d="M105.62,105.09a1.44,1.44,0,0,1-2.83,0,1.44,1.44,0,0,1,2.83,0Z"/><path class="cls-8" d="M97,105.44C119,93.8,146.57,91.31,170.71,95.05c.49.08.67-.69.17-.76-24.34-3.77-52.16-1.25-74.29,10.49-.44.23,0,.89.42.66Z"/><path class="cls-8" d="M104.52,105.69c20.07-7.24,46-2,65.81,2.55a.39.39,0,0,0,.17-.76c-19.94-4.55-46.06-9.8-66.21-2.54-.48.17-.24.92.23.75Z"/><path class="cls-8" d="M100.62,110.49c21.69-1.58,44.6,7,63,17.6.44.25.81-.44.37-.69-18.54-10.67-41.55-19.28-63.39-17.69a.39.39,0,0,0,0,.78Z"/><path class="cls-5" d="M73.36,105.09a1.44,1.44,0,0,0,2.83,0,1.44,1.44,0,0,0-2.83,0Z"/><path class="cls-5" d="M69.11,110a1.44,1.44,0,1,0,1.42-1.17A1.31,1.31,0,0,0,69.11,110Z"/><path class="cls-5" d="M65.56,105.09A1.44,1.44,0,1,0,67,103.92,1.31,1.31,0,0,0,65.56,105.09Z"/><path class="cls-8" d="M74.17,105.44C52.22,93.81,24.61,91.32.47,95.06,0,95.13-.2,94.37.3,94.3c24.34-3.77,52.16-1.25,74.29,10.48.44.24,0,.9-.42.66Z"/><path class="cls-8" d="M66.66,105.69c-20.07-7.23-46-2-65.81,2.55a.39.39,0,0,1-.18-.76c20-4.54,46.07-9.8,66.22-2.53.47.17.24.92-.23.74Z"/><path class="cls-8" d="M70.56,110.49c-21.7-1.57-44.61,7-63,17.6-.44.26-.81-.43-.37-.68,18.54-10.67,41.54-19.28,63.39-17.7.5,0,.47.82,0,.78Z"/></g></g></svg>