<svg xmlns="http://www.w3.org/2000/svg" viewBox="0 0 256.36 306.14"><defs><style>.cls-1{fill:#685462;}.cls-2{fill:#30272d;}.cls-3{fill:#e6b050;}.cls-4{fill:#ccc1c5;}.cls-5{fill:#6d5967;}.cls-6{fill:#f4c9d7;}.cls-7{fill:#816c79;}.cls-8{fill:#534239;}.cls-9{fill:#353231;}.cls-10{fill:#44333f;}</style></defs><title>Asset 2</title><g id="Layer_2" data-name="Layer 2"><g id="Objects"><path class="cls-1" d="M197.44,161.69a48.27,48.27,0,0,0-6.94-2.37c-23.61-15.78-65.07-15.22-90.26-33.13-.59-.41-1.18-.79-1.78-1.15-3.7-7.05-6.18-12.41-6.19-15,0-2.29-17.46-2.33-17.47.41,0,9.78-35.25,38-39.06,64.78a24,24,0,0,0-.66,6.48c.7,26.29,32.82,91.39,28.31,105.5-1.82,5.72-7.29,4-7.74,11.57-.57,9.67,28.71,10.44,27-1.41-.81-5.57-7.13-6.4-8-9.1-1.18-3.88,3.49-33.94,8.85-63.61,5.37,29.67,10,59.73,8.86,63.61-.83,2.7-7.14,3.53-8,9.1-1.74,11.85,27.54,11.08,27,1.41-.45-7.57-5.91-5.85-7.74-11.57-2.23-7,4.58-27.57,11.86-49.75.56-1.71,1.13-3.44,1.69-5.17l2,.31-2-.31c1.64-5,3.26-10.05,4.79-15a140.58,140.58,0,0,0,27.62,10.24,55.07,55.07,0,0,0,3.7,6.67l-.3,0,.3,0a76.48,76.48,0,0,0,9.22,11.48c7.07,7.38,14.7,13.23,19.66,18.76,13.81,15.43,24.47,20.79,9.67,29.56-14,8.32,17.95,15.43,23.48,1.29s-18-50.13-11.05-75.83A117.24,117.24,0,0,0,208,200a39.86,39.86,0,0,0,.42-7.6c-.06-1.71-.2-3.35-.4-4.93a38.53,38.53,0,0,0-4.6-15.17c19.27,14.92,25,32.5,24.9,41.57-.13,20.43-35.34,28.59-13.29,46.37,13.08,10.54,37.14-2.67,40.83-29.78C260.56,195.66,234,176.48,197.44,161.69ZM73.36,173.62c29.34,2.1-1.24,19.25,9.9,52.48C53.24,207.31,52.15,172.1,73.36,173.62Z"/><path class="cls-2" d="M153,234.22l-.43,0q-1,.06-2,.09l-.69,0-1.91.06h-.71l-2,0h-.53c-3.09,0-6.23-.08-9.41-.26l-.58,0-2.06-.13-.7,0-2.06-.17-.61,0c-.73-.07-1.46-.13-2.18-.21h-.09q-3.72-.37-7.46-.9l-.42-.06-2-.31c-.56,1.73-1.13,3.46-1.69,5.17,5.18,11.55,14.39,19.55,18.93,27,9.4,15.43,18.52,20.79,1.22,29.56-16.41,8.32,13.54,15.43,23.11,1.29,6.56-9.7,2.4-29.71,3.76-49.61a76.48,76.48,0,0,1-9.22-11.48Z"/><path class="cls-3" d="M147.32,234.43l-2,0Z"/><path class="cls-3" d="M134.82,234.17l-2.06-.13Z"/><path class="cls-3" d="M144.81,234.46c-3.09,0-6.23-.08-9.41-.26C138.58,234.38,141.72,234.46,144.81,234.46Z"/><path class="cls-3" d="M132.06,234l-2.06-.17Z"/><path class="cls-3" d="M129.39,233.77c-.73-.07-1.46-.13-2.18-.21C127.93,233.64,128.66,233.7,129.39,233.77Z"/><path class="cls-3" d="M127.12,233.55q-3.72-.37-7.46-.9Q123.4,233.18,127.12,233.55Z"/><path class="cls-3" d="M149.94,234.36l-1.91.06Z"/><path class="cls-3" d="M152.58,234.24q-1,.06-2,.09Q151.62,234.3,152.58,234.24Z"/><path class="cls-4" d="M127.12,233.55h.09c.72.08,1.45.14,2.18.21l.61,0,2.06.17.7,0,2.06.13.58,0c3.18.18,6.32.26,9.41.26h.53l2,0H148l1.91-.06.69,0q1,0,2-.09l.43,0,.3,0a55.07,55.07,0,0,1-3.7-6.67A140.58,140.58,0,0,1,122,217.29c-1.53,4.94-3.15,10-4.79,15l2,.31.42.06Q123.4,233.18,127.12,233.55Z"/><path class="cls-4" d="M73.36,173.62c-21.21-1.52-20.12,33.69,9.9,52.48C72.12,192.87,102.7,175.72,73.36,173.62Z"/><path class="cls-5" d="M115.21,28.23S147.2-5.06,156.57.66s-6.25,49.16-12.75,62.68C143.82,63.34,124.31,51.64,115.21,28.23Z"/><path class="cls-6" d="M138.15,59.21c5.35-11.68,18.42-44.07,12.17-47.89-5.77-3.52-26.77,18-32.07,23.62A78.21,78.21,0,0,0,138.15,59.21Z"/><path class="cls-5" d="M56.85,28.23S24.86-5.06,15.49.66s6.25,49.16,12.75,62.68C28.24,63.34,47.74,51.64,56.85,28.23Z"/><path class="cls-6" d="M33.91,59.21C28.55,47.53,15.49,15.14,21.74,11.32c5.77-3.52,26.77,18,32.07,23.62A78.35,78.35,0,0,1,33.91,59.21Z"/><path class="cls-7" d="M138,43.37c-21.44-24.68-52-24.6-52-24.6s-30.57-.08-52,24.6C10,71,6.26,130.87,86,130.87S162,71,138,43.37Z"/><circle class="cls-4" cx="53.81" cy="76.12" r="14.25" transform="translate(-11.45 9.56) rotate(-9.18)"/><path class="cls-8" d="M53.81,74.47a10.52,10.52,0,0,1,9.56,6.14,10.41,10.41,0,0,0,1-4.39,10.53,10.53,0,1,0-20.1,4.39A10.54,10.54,0,0,1,53.81,74.47Z"/><circle class="cls-4" cx="117.04" cy="76.12" r="14.25" transform="translate(-14.29 28.74) rotate(-13.2)"/><path class="cls-8" d="M117,74.47a10.51,10.51,0,0,1,9.56,6.14,10.41,10.41,0,0,0,1-4.39,10.53,10.53,0,1,0-21.06,0,10.41,10.41,0,0,0,1,4.39A10.51,10.51,0,0,1,117,74.47Z"/><path class="cls-9" d="M81.14,114.7s4.33,4.2,9.78,0L86,106.26Z"/><path class="cls-10" d="M112.19,103.84c-.07.48-3.88,11.39-13.52,11.39-8.82,0-11.16-9.43-11.55-11.43v0h0c0-.17,0-.29-.06-.33l-1,.16-1-.16s0,.16-.06.33h0v0c-.39,2-2.73,11.43-11.55,11.43-9.65,0-13.4-10.9-13.47-11.38l-.17,0c0,.13,2.14,13.5,13.64,13.5,7.54,0,11.08-5.79,12.64-9.81,1.56,4,5.1,9.81,12.64,9.81,11.5,0,13.62-13.37,13.64-13.5Z"/><path class="cls-9" d="M94.62,97.81C94,95.47,86.05,95.46,86,95.46h0s-7.94,0-8.59,2.35,2.09,2.47,4.29,3.64,1.7,4,4.3,4h0c2.6,0,2.08-2.86,4.29-4S95.26,100.15,94.62,97.81Z"/><path class="cls-10" d="M97.81,105.09a1.43,1.43,0,1,1-1.41-1.17A1.31,1.31,0,0,1,97.81,105.09Z"/><path class="cls-10" d="M102.06,110a1.43,1.43,0,1,1-1.41-1.17A1.3,1.3,0,0,1,102.06,110Z"/><path class="cls-10" d="M105.62,105.09a1.44,1.44,0,0,1-2.83,0,1.44,1.44,0,0,1,2.83,0Z"/><path class="cls-4" d="M97,105.44C119,93.8,146.57,91.31,170.71,95.05c.49.08.67-.69.17-.76-24.34-3.77-52.16-1.25-74.29,10.49-.45.23,0,.89.42.66Z"/><path class="cls-4" d="M104.52,105.69c20.07-7.24,46-2,65.81,2.55a.39.39,0,0,0,.17-.76c-19.95-4.55-46.06-9.8-66.21-2.54-.48.17-.25.92.23.75Z"/><path class="cls-4" d="M100.62,110.49c21.69-1.58,44.6,7,63,17.6.44.25.81-.44.37-.69-18.54-10.67-41.55-19.28-63.39-17.69a.39.39,0,0,0,0,.78Z"/><path class="cls-10" d="M73.36,105.09a1.44,1.44,0,0,0,2.83,0,1.44,1.44,0,0,0-2.83,0Z"/><path class="cls-10" d="M69.11,110a1.44,1.44,0,1,0,1.42-1.17A1.31,1.31,0,0,0,69.11,110Z"/><path class="cls-10" d="M65.56,105.09A1.44,1.44,0,1,0,67,103.92,1.31,1.31,0,0,0,65.56,105.09Z"/><path class="cls-4" d="M74.17,105.44C52.22,93.81,24.61,91.32.47,95.06,0,95.13-.2,94.37.3,94.3c24.34-3.77,52.16-1.25,74.29,10.48.44.24,0,.9-.42.66Z"/><path class="cls-4" d="M66.66,105.69c-20.07-7.23-46-2-65.81,2.55a.39.39,0,0,1-.18-.76c20-4.54,46.06-9.8,66.22-2.53.47.17.24.92-.23.74Z"/><path class="cls-4" d="M70.56,110.49c-21.7-1.57-44.61,7-63,17.6-.44.26-.81-.43-.37-.68,18.54-10.67,41.54-19.28,63.39-17.7.5,0,.47.82,0,.78Z"/><path class="cls-1" d="M115.75,26.66l0-.08A75.92,75.92,0,0,0,86,18.78h-.44a75.92,75.92,0,0,0-29.7,7.8l0,.08s26,37,21.48,66c0,0,2.29-1.46,8.46-1.5s8.46,1.5,8.46,1.5C89.71,63.7,115.75,26.66,115.75,26.66Z"/></g></g></svg>