<svg xmlns="http://www.w3.org/2000/svg" viewBox="0 0 250.81 313.86"><defs><style>.cls-1{fill:#72706f;}.cls-2{fill:#d7d3d2;}.cls-3{fill:#444241;}.cls-4{fill:#fff;}.cls-5{fill:#534239;}</style></defs><title>Asset 3</title><g id="Layer_2" data-name="Layer 2"><g id="Objects"><path class="cls-1" d="M209.49,177.6a123.86,123.86,0,0,0,1.31-21.78c-1.61-32.71-19-43.48-28-41.27-3.88-9.55-6.38-17-6.39-21.43,0-5.28-24.18-5.2-24.19-.78s-2.62,12.25-6.64,22.15c-9-1.94-26.11,8.94-27.71,41.33a123.32,123.32,0,0,0,1.27,21.43c-1.23,3.21-2.44,6.45-3.6,9.7a48.4,48.4,0,0,0-15.22-11c-13.84-6.3-29.7-5.6-48.18-3-8.7,1.21-16.34-.09-22.51-3.09A29.62,29.62,0,0,1,16.79,158a27.56,27.56,0,0,1-3.48-16.6,33.5,33.5,0,0,1,8.06-18.06C27.6,115.88,35,114,40.92,115.55a15.46,15.46,0,0,1,6.18,3.23A14.23,14.23,0,0,1,51,124.16c2.13,5.19,1.09,12.13-5.41,19.26a6.58,6.58,0,0,0,9.73,8.86c10.47-11.49,11.77-23.58,7.86-33.1a27.52,27.52,0,0,0-7.55-10.38,28.73,28.73,0,0,0-11.35-6c-10.46-2.76-23,.11-33,12A46.48,46.48,0,0,0,.22,140a40.71,40.71,0,0,0,5.13,24.45,42.76,42.76,0,0,0,18.59,17.25c8.38,4.08,18.61,5.86,30.07,4.25,16.25-2.27,30-3,40.91,2,5.79,2.63,11,7,15.72,13.77-12.56,40.61-15.39,80,17.91,95.06a11.4,11.4,0,0,0-2.27,6.82c-.77,13,37.21,14.45,37.43-.45h0a11.11,11.11,0,0,0-.1-1.5c-1.13-7.75-9.87-8.91-11-12.67-2.5-8.26-6.42-96.79-4.66-141a33,33,0,0,1,32.84,0c1.76,44.18-2.16,132.73-4.66,141-1.14,3.76-9.88,4.92-11,12.67a8.59,8.59,0,0,0-.1,1.5h0c.21,14.9,38.2,13.47,37.43.45a11.39,11.39,0,0,0-2.26-6.81C240.2,278.8,228,225.67,209.49,177.6ZM124.84,291.33c-3-32.47-4-63.26-1.14-88.25,7,34.32,17.4,71.5,13.29,84.43-1.38,4.34-4.26,5.6-6.68,7.56A48.33,48.33,0,0,1,124.84,291.33Zm79,.08a48.7,48.7,0,0,1-5.39,3.68c-2.43-2-5.32-3.23-6.7-7.58C187.61,274.57,198,237.34,205,203,207.86,228,206.83,258.89,203.82,291.41Z"/><path class="cls-2" d="M191.73,287.51c1.38,4.35,4.27,5.61,6.7,7.58a48.7,48.7,0,0,0,5.39-3.68c3-32.52,4-63.38,1.22-88.41C198,237.34,187.61,274.57,191.73,287.51Z"/><path class="cls-2" d="M165.11,301.66c1.13-7.75,9.87-8.91,11-12.67,2.5-8.26,6.42-96.81,4.66-141a33,33,0,0,0-32.84,0c-1.76,44.19,2.16,132.72,4.66,141,1.14,3.76,9.88,4.92,11,12.67a11.11,11.11,0,0,1,.1,1.5H165A8.59,8.59,0,0,1,165.11,301.66Z"/><path class="cls-2" d="M137,287.51c4.11-12.93-6.25-50.11-13.29-84.43-2.83,25-1.83,55.78,1.14,88.25a48.33,48.33,0,0,0,5.47,3.74C132.73,293.11,135.61,291.85,137,287.51Z"/><path class="cls-3" d="M185.71,21S201.13.86,232,0c0,0,9.43,31.27-11.56,47.12C220.41,47.12,184.43,33.84,185.71,21Z"/><path class="cls-1" d="M193.62,21.83S204,8.29,224.74,7.71c0,0,6.34,21-7.78,31.7C217,39.41,192.76,30.48,193.62,21.83Z"/><path class="cls-3" d="M145.16,21S129.74.86,98.9,0c0,0-9.42,31.27,11.57,47.12C110.47,47.12,146.45,33.84,145.16,21Z"/><path class="cls-1" d="M137.25,21.83S126.88,8.29,106.13,7.71c0,0-6.34,21,7.78,31.7C113.91,39.41,138.12,30.48,137.25,21.83Z"/><path class="cls-4" d="M249.72,72.35c-11.56,2.73-17.78-27.38-39.56-45.6s-44.49-16.37-44.49-16.37h0s-22.72-1.84-44.49,16.37-28,48.33-39.56,45.6c0,0,35.22,46.61,84.05,46.61h0C214.5,119,249.72,72.35,249.72,72.35Z"/><path class="cls-2" d="M216.9,74.66c9.65-.28,16-11,16-11-11.17,4.42-18.53-1.18-18.53-1.18,5.85,1.85,10.91-5.44,10.91-5.44-8.12-6.07-14.72-19.86-28.11-28.69s-31-9.1-31-9.1h0s-17.63.28-31,9.1S115.14,50.93,107,57c0,0,5.06,7.29,10.91,5.44,0,0-7.35,5.6-18.53,1.18,0,0,6.35,10.76,16,11,0,0-9.14,6.68-16,3.75,0,0,27.12,33.76,66.75,33.76h0c39.63,0,66.75-33.76,66.75-33.76C226,81.34,216.9,74.66,216.9,74.66Z"/><path class="cls-3" d="M160.78,95.33s4.32,4.2,9.78,0l-4.89-8.44Z"/><path class="cls-1" d="M191.82,84.47c-.07.48-3.87,11.39-13.52,11.39-8.81,0-11.15-9.43-11.54-11.43v0h0c0-.17-.05-.29-.06-.33l-1,.16-1-.16s0,.16,0,.33h0a.1.1,0,0,1,0,0c-.4,2-2.73,11.43-11.55,11.43-9.65,0-13.4-10.9-13.48-11.38l-.16,0C139.4,84.64,141.53,98,153,98c7.53,0,11.08-5.79,12.64-9.81,1.55,4,5.1,9.81,12.63,9.81C189.81,98,191.93,84.64,192,84.5Z"/><path class="cls-3" d="M174.25,78.44c-.65-2.34-8.57-2.35-8.58-2.35h0s-7.94,0-8.59,2.35,2.08,2.47,4.29,3.64,1.7,4,4.3,4h0c2.59,0,2.08-2.86,4.29-4S174.9,80.78,174.25,78.44Z"/><path class="cls-1" d="M177.45,85.72A1.44,1.44,0,1,1,176,84.55,1.31,1.31,0,0,1,177.45,85.72Z"/><path class="cls-1" d="M181.7,90.65a1.44,1.44,0,1,1-1.41-1.17A1.31,1.31,0,0,1,181.7,90.65Z"/><path class="cls-1" d="M185.25,85.72a1.44,1.44,0,1,1-1.41-1.17A1.31,1.31,0,0,1,185.25,85.72Z"/><path class="cls-1" d="M176.64,86.07c22-11.64,49.57-14.13,73.7-10.39.5.07.68-.68.18-.76-24.34-3.77-52.16-1.25-74.29,10.49-.45.23,0,.89.41.66Z"/><path class="cls-1" d="M184.15,86.32c20.07-7.24,46-2,65.82,2.55a.39.39,0,0,0,.17-.76c-19.95-4.55-46.06-9.81-66.22-2.54-.47.17-.24.92.23.75Z"/><path class="cls-1" d="M180.26,91.12c21.69-1.58,44.6,7,63,17.6.43.25.8-.44.37-.69-18.55-10.66-41.55-19.28-63.4-17.69a.39.39,0,0,0,0,.78Z"/><path class="cls-1" d="M153,85.72a1.44,1.44,0,1,0,1.41-1.17A1.31,1.31,0,0,0,153,85.72Z"/><path class="cls-1" d="M148.75,90.65a1.44,1.44,0,1,0,1.41-1.17A1.31,1.31,0,0,0,148.75,90.65Z"/><path class="cls-1" d="M145.2,85.72a1.44,1.44,0,1,0,1.41-1.17A1.31,1.31,0,0,0,145.2,85.72Z"/><path class="cls-1" d="M153.81,86.07C131.86,74.44,104.24,72,80.11,75.69c-.5.07-.68-.69-.18-.77,24.34-3.76,52.16-1.24,74.29,10.49.45.24,0,.9-.41.66Z"/><path class="cls-1" d="M146.3,86.32c-20.07-7.23-46-2-65.82,2.55a.39.39,0,0,1-.17-.76c20-4.54,46.06-9.8,66.22-2.53.47.17.24.92-.23.74Z"/><path class="cls-1" d="M150.19,91.12c-21.69-1.57-44.6,7-63,17.6-.43.25-.8-.43-.37-.68,18.55-10.67,41.55-19.28,63.4-17.7a.39.39,0,0,1,0,.78Z"/><circle class="cls-4" cx="140.99" cy="59.13" r="14.25"/><path class="cls-5" d="M141,57.47a10.5,10.5,0,0,1,9.56,6.15,10.53,10.53,0,1,0-19.12,0A10.5,10.5,0,0,1,141,57.47Z"/><circle class="cls-4" cx="188.6" cy="59.13" r="14.25"/><path class="cls-5" d="M188.6,57.47a10.53,10.53,0,0,1,9.57,6.15,10.53,10.53,0,1,0-20.1-4.4,10.45,10.45,0,0,0,1,4.4A10.5,10.5,0,0,1,188.6,57.47Z"/></g></g></svg>