<svg xmlns="http://www.w3.org/2000/svg" viewBox="0 0 197.15 326.6"><defs><style>.cls-1{fill:none;}.cls-2{fill:#d1c4a1;}.cls-3{fill:#534239;}.cls-4{fill:#6e5c4e;}.cls-5{fill:#7d7465;}.cls-6{fill:#353231;}.cls-7{fill:#ccc1c5;}</style></defs><title>Asset 4</title><g id="Layer_2" data-name="Layer 2"><g id="Objects"><path class="cls-1" d="M104.49,275.27a47.44,47.44,0,0,1-11,25.3c-.72,1.05-1.48,2.07-2.3,3.06a17.37,17.37,0,0,1,5.83,3.68,64.41,64.41,0,0,0,19.57-17.05c-1.91-6.63-5.14-15.06-8.94-24.35C106.54,269.08,105.5,272.21,104.49,275.27Z"/><path class="cls-1" d="M130.26,303.29c.67,1.68,3.26,2.69,5.57,4.41,2-1.72,4.43-2.73,4.8-4.41.46-2.09-1.27-11.39-4.18-24.16a91,91,0,0,1-6.74,12.5C129.58,297.76,129.74,302,130.26,303.29Z"/><path class="cls-2" d="M152.43,302.17c-6-15,15.3-94.48,13.74-122.34,0-.05,0-.1,0-.15-1.36-28.37-32.77-54.44-32.81-64.83,0-1.79-7-2.45-12.35-2.14-14.13-21.24-29.37-29.59-32.4-5-2.17,17.68-2.8,35.27-6.81,51.72,28.91,3.59,47.58,21.06,56.74,43.53a93,93,0,0,1,6.56,35.76,102.57,102.57,0,0,1-6.93,36.31c-.54,1.37-1.11,2.72-1.71,4.06,2.91,12.77,4.64,22.07,4.18,24.16-.37,1.68-2.78,2.69-4.8,4.41-2.31-1.72-4.9-2.73-5.57-4.41-.52-1.32-.68-5.53-.55-11.66a79.49,79.49,0,0,1-18.23,19.95,11,11,0,0,0-.23,2.85c.27,7.84,18.46,10.15,25.63,5.18,8.05,5,25.83,2.66,24.72-5.18C160.47,306.4,154.86,308.23,152.43,302.17Z"/><path class="cls-3" d="M104.8,269.88a47.61,47.61,0,0,0-19.2-38.17A55.6,55.6,0,0,1,100,269.42a56.07,56.07,0,0,1-10.8,33.4c.6.21,1.17.43,1.72.66.93-.93,1.81-1.91,2.66-2.91a47.44,47.44,0,0,0,11-25.3A48,48,0,0,0,104.8,269.88Z"/><path class="cls-2" d="M19.5,293.1a49.91,49.91,0,0,0,22,17.47,64.29,64.29,0,0,0,28,4.48,62.37,62.37,0,0,0,27.53-7.74,17.37,17.37,0,0,0-5.83-3.68c.82-1,1.58-2,2.3-3.06-.85,1-1.73,2-2.66,2.91-.55-.23-1.12-.45-1.72-.66a56.07,56.07,0,0,0,10.8-33.4A55.6,55.6,0,0,0,85.6,231.71a47.49,47.49,0,0,1,18.89,43.56c1-3.06,2.05-6.19,3.2-9.36,3.8,9.29,7,17.72,8.94,24.35a78.88,78.88,0,0,0,10.86-19.36,91,91,0,0,0,6.16-32.23,81.64,81.64,0,0,0-5.75-31.36C120,188,103.78,173.12,78.43,170.61c-6.66,18.15-19.22,34.51-45,47.51a49.69,49.69,0,0,0-20.81,19.33C7.86,248.83,3,269.49,19.5,293.1Z"/><path class="cls-4" d="M129.71,291.63a91,91,0,0,0,6.74-12.5c.6-1.34,1.17-2.69,1.71-4.06a102.57,102.57,0,0,0,6.93-36.31A93,93,0,0,0,138.53,203c-9.16-22.47-27.83-39.94-56.74-43.53-2.49-.31-5-.52-7.67-.62a5.72,5.72,0,0,0-.4,11.44c1.6.05,3.17.17,4.71.32,25.35,2.51,41.61,17.41,49.47,36.7a81.64,81.64,0,0,1,5.75,31.36,91,91,0,0,1-6.16,32.23,78.88,78.88,0,0,1-10.86,19.36,64.41,64.41,0,0,1-19.57,17.05,62.37,62.37,0,0,1-27.53,7.74,64.29,64.29,0,0,1-28-4.48,49.91,49.91,0,0,1-22-17.47C3,269.49,7.86,248.83,12.58,237.45l0,0c-17.4,16.77-15.38,43.77-2.48,62.24a61.39,61.39,0,0,0,27,21.5,75.46,75.46,0,0,0,33,5.34,73,73,0,0,0,41.41-14.91A79.49,79.49,0,0,0,129.71,291.63Z"/><path class="cls-3" d="M141.49,28.23s32-33.29,41.35-27.57S176.6,49.82,170.1,63.34C170.1,63.34,150.59,51.64,141.49,28.23Z"/><path class="cls-5" d="M164.42,59.21c5.36-11.68,18.43-44.07,12.18-47.88-5.77-3.53-26.78,18-32.07,23.61A78.08,78.08,0,0,0,164.42,59.21Z"/><path class="cls-3" d="M83.13,28.23S51.14-5.06,41.77.66,48,49.82,54.52,63.34C54.52,63.34,74,51.64,83.13,28.23Z"/><path class="cls-5" d="M60.19,59.21C54.83,47.53,41.76,15.14,48,11.33c5.78-3.53,26.78,18,32.08,23.61A78.23,78.23,0,0,1,60.19,59.21Z"/><path class="cls-2" d="M164.32,43.37c-21.44-24.68-52-24.6-52-24.6s-30.58-.08-52,24.6c-24,27.63-27.77,87.5,52,87.5S188.31,71,164.32,43.37Z"/><path class="cls-4" d="M112.82,36.47H112c-70.29.52-59.08,71.88-59.08,71.88,9.25,12.91,27.53,22.25,58.65,22.51h1.73c31.12-.26,49.4-9.6,58.65-22.51C171.9,108.35,183.11,37,112.82,36.47Z"/><path class="cls-6" d="M107.12,114.7s4.32,4.2,9.78,0L112,106.26Z"/><path class="cls-6" d="M138.17,103.84c-.08.48-3.88,11.39-13.53,11.39-8.81,0-11.15-9.43-11.54-11.43v0h0c0-.17,0-.29-.06-.33l-1,.16-1-.16s0,.16,0,.33h0v0c-.4,2-2.73,11.43-11.55,11.43-9.65,0-13.4-10.9-13.48-11.38l-.17,0c0,.13,2.15,13.5,13.65,13.5,7.53,0,11.08-5.79,12.64-9.81,1.55,4,5.1,9.81,12.63,9.81,11.51,0,13.63-13.37,13.65-13.5Z"/><path class="cls-6" d="M120.59,97.81c-.65-2.34-8.57-2.34-8.58-2.34h0s-8,0-8.59,2.34,2.08,2.47,4.29,3.64,1.7,4,4.3,4h0c2.59,0,2.08-2.86,4.29-4S121.24,100.15,120.59,97.81Z"/><path class="cls-6" d="M123.79,105.09a1.44,1.44,0,1,1-1.41-1.17A1.3,1.3,0,0,1,123.79,105.09Z"/><path class="cls-6" d="M128,110a1.44,1.44,0,1,1-1.41-1.17A1.3,1.3,0,0,1,128,110Z"/><path class="cls-6" d="M131.59,105.09a1.44,1.44,0,1,1-1.41-1.17A1.3,1.3,0,0,1,131.59,105.09Z"/><path class="cls-7" d="M123,105.44c22-11.64,49.57-14.13,73.7-10.39.5.08.68-.68.18-.76-24.34-3.77-52.16-1.25-74.29,10.49-.45.23,0,.89.41.66Z"/><path class="cls-7" d="M130.49,105.69c20.07-7.24,46-2,65.82,2.55a.39.39,0,0,0,.17-.76c-19.95-4.55-46.06-9.8-66.22-2.54-.47.17-.24.92.23.75Z"/><path class="cls-7" d="M126.6,110.49c21.69-1.58,44.6,7,63,17.6.43.25.8-.44.37-.69-18.54-10.66-41.55-19.28-63.4-17.69a.39.39,0,0,0,0,.78Z"/><path class="cls-6" d="M99.34,105.09a1.44,1.44,0,1,0,1.41-1.17A1.3,1.3,0,0,0,99.34,105.09Z"/><path class="cls-6" d="M95.09,110a1.44,1.44,0,1,0,1.41-1.17A1.3,1.3,0,0,0,95.09,110Z"/><path class="cls-6" d="M91.54,105.09A1.44,1.44,0,1,0,93,103.92,1.3,1.3,0,0,0,91.54,105.09Z"/><path class="cls-7" d="M100.15,105.44c-22-11.63-49.57-14.12-73.7-10.38-.5.07-.67-.69-.18-.76,24.35-3.77,52.16-1.25,74.29,10.48.45.24,0,.9-.41.66Z"/><path class="cls-7" d="M92.64,105.69c-20.07-7.23-46-2-65.82,2.55a.39.39,0,0,1-.17-.76c20-4.54,46.06-9.8,66.22-2.53.47.17.24.92-.23.74Z"/><path class="cls-7" d="M96.53,110.49c-21.69-1.57-44.6,7-63,17.6a.39.39,0,0,1-.38-.68c18.55-10.67,41.55-19.28,63.4-17.7a.39.39,0,0,1,0,.78Z"/><circle class="cls-2" cx="85.9" cy="77.6" r="14.25" transform="translate(-15.45 21.67) rotate(-13.2)"/><path class="cls-3" d="M85.9,76a10.51,10.51,0,0,1,9.56,6.14,10.41,10.41,0,0,0,1-4.39,10.53,10.53,0,1,0-20.1,4.39A10.52,10.52,0,0,1,85.9,76Z"/><circle class="cls-2" cx="137.23" cy="77.6" r="14.25" transform="translate(-14.09 33.39) rotate(-13.2)"/><path class="cls-3" d="M137.23,76a10.49,10.49,0,0,1,9.56,6.14,10.41,10.41,0,0,0,1-4.39,10.53,10.53,0,0,0-21.06,0,10.41,10.41,0,0,0,1,4.39A10.49,10.49,0,0,1,137.23,76Z"/></g></g></svg>